<?xml version="1.0" encoding="iso-8859-1"?>
<!-- Generator: Adobe Illustrator 19.0.0, SVG Export Plug-In . SVG Version: 6.00 Build 0)  -->
<svg version="1.1" id="Layer_1" xmlns="http://www.w3.org/2000/svg" xmlns:xlink="http://www.w3.org/1999/xlink" x="0px" y="0px"
	 viewBox="0 0 512 512" style="enable-background:new 0 0 512 512;" xml:space="preserve">
<circle style="fill:#FF7F4F;" cx="256" cy="256" r="256"/>
<path style="fill:#DD562C;" d="M512,256c0-10.23-0.619-20.313-1.786-30.23L369.778,85.333L142.222,398.222L256,512l0,0
	C397.384,512,512,397.384,512,256z"/>
<rect x="142.222" y="85.333" style="fill:#FFEDB5;" width="227.556" height="312.889"/>
<rect x="255.431" y="85.333" style="fill:#FEE187;" width="114.347" height="312.889"/>
<g>
	<rect x="170.667" y="139.636" style="fill:#263A7A;" width="170.667" height="5.172"/>
	<rect x="170.667" y="168.081" style="fill:#263A7A;" width="170.667" height="5.172"/>
	<rect x="170.667" y="196.525" style="fill:#263A7A;" width="170.667" height="5.172"/>
	<rect x="170.667" y="224.97" style="fill:#263A7A;" width="170.667" height="5.172"/>
	<rect x="170.667" y="253.414" style="fill:#263A7A;" width="170.667" height="5.172"/>
	<rect x="170.667" y="281.859" style="fill:#263A7A;" width="170.667" height="5.172"/>
	<rect x="170.667" y="310.303" style="fill:#263A7A;" width="56.889" height="5.172"/>
	<path style="fill:#263A7A;" d="M358.097,363.656l-34.673-17.315l90.605-181.448c4.467-8.944,15.336-12.574,24.281-8.108
		l2.286,1.141c8.944,4.467,12.574,15.338,8.108,24.281L358.097,363.656z"/>
</g>
<path style="fill:#121149;" d="M440.592,157.929l-1.339-0.669l-99.076,197.449l17.92,8.949l90.605-181.448
	C453.167,173.265,449.536,162.394,440.592,157.929z"/>
<polygon style="fill:#FFC61B;" points="358.097,363.656 329.331,377.885 323.422,346.343 "/>
<polygon style="fill:#D48B07;" points="329.118,376.746 329.331,377.885 358.097,363.656 340.177,354.709 "/>
<g>
</g>
<g>
</g>
<g>
</g>
<g>
</g>
<g>
</g>
<g>
</g>
<g>
</g>
<g>
</g>
<g>
</g>
<g>
</g>
<g>
</g>
<g>
</g>
<g>
</g>
<g>
</g>
<g>
</g>
</svg>
