<svg id="Layer_1" enable-background="new 0 0 497 497" height="512" viewBox="0 0 497 497" width="512" xmlns="http://www.w3.org/2000/svg"><g><path d="m120 187.156v-120c0-33.137 26.863-60 60-60h257c33.137 0 60 26.863 60 60v235.173c0 7.138-9.029 10.24-13.416 4.61l-46.584-59.783h-257c-33.137 0-60-26.863-60-60z" fill="#1e8aff"/><path d="m437 37.156h-30v180h30c16.569 0 30-13.431 30-30v-120c0-16.568-13.431-30-30-30z" fill="#dbebff"/><path d="m437 187.156v-120c0-16.569-13.431-30-30-30h-227c-16.569 0-30 13.431-30 30v120c0 16.569 13.431 30 30 30h227c16.569 0 30-13.431 30-30z" fill="#fff"/><path d="m377 367.156v-120c0-33.137-26.863-60-60-60h-257c-33.137 0-60 26.863-60 60v235.173c0 7.138 9.029 10.24 13.416 4.61l46.584-59.783h257c33.137 0 60-26.863 60-60z" fill="#ffb739"/><g fill="#1b74d6"><circle cx="248.5" cy="127.156" r="15"/><circle cx="308.5" cy="127.156" r="15"/><circle cx="368.5" cy="127.156" r="15"/></g><path d="m317 217.156h-30v180h30c16.569 0 30-13.431 30-30v-120c0-16.568-13.431-30-30-30z" fill="#ffeac3"/><path d="m317 367.156v-120c0-16.569-13.431-30-30-30h-227c-16.569 0-30 13.431-30 30v120c0 16.569 13.431 30 30 30h227c16.569 0 30-13.431 30-30z" fill="#fff"/><circle cx="128.5" cy="307.156" fill="#ff9441" r="15"/><circle cx="188.5" cy="307.156" fill="#ff9441" r="15"/><circle cx="248.5" cy="307.156" fill="#ff9441" r="15"/></g></svg>