<svg id="Capa_1" enable-background="new 0 0 511.958 511.958" height="512" viewBox="0 0 511.958 511.958" width="512" xmlns="http://www.w3.org/2000/svg"><g><g><g><path d="m256.521 147.866 27.08 34.92-127.64 126.88c-8.16 3.32-17.87 1.67-24.49-4.96l-66.24-66.23c-16.25-16.26-23.69-39.34-19.98-62.03l2.42-14.78-36.355-36.355c-2.158-2.158-2.648-5.476-1.205-8.166l54.416-101.438c2.194-4.089 7.711-4.904 10.993-1.622l59.982 59.982c1.07 1.07 2.61 1.53 4.1 1.23l6.87-1.39c18.74-3.8 38.13 2.05 51.65 15.56z" fill="#ffe5c2"/></g><path d="m160.445 299.403-66.24-66.23c-16.25-16.26-23.69-39.34-19.98-62.03l.609-3.719c1.143-6.982-.989-14.102-5.783-19.306l-47.747-51.836-11.192 20.864c-1.443 2.69-.953 6.007 1.205 8.166l36.355 36.355-2.42 14.78c-3.71 22.69 3.73 45.77 19.98 62.03l66.24 66.23c6.62 6.63 16.33 8.28 24.49 4.96l7.67-7.625c-1.12-.772-2.192-1.642-3.187-2.639z" fill="#fed2a4"/><g><g id="XMLID_542_"><g><path d="m447.574 14.131 54.832 105.061c1.11 2.127.711 4.729-.986 6.426l-36.049 36.049 2.42 14.78c3.71 22.69-3.73 45.77-19.98 62.03l-66.24 66.23c-7.11 7.12-17.79 8.49-26.29 4.13l-125.8-136.66 22.58-19.84 62.86-62.87c13.52-13.51 32.91-19.36 51.65-15.56l6.87 1.39c1.49.3 3.03-.16 4.1-1.23l61.278-61.278c2.624-2.624 7.039-1.947 8.755 1.342z" fill="#eb9c8d"/></g></g></g><path d="m271.498 175.77 62.86-62.87c13.52-13.51 32.91-19.36 51.65-15.56l6.87 1.39c1.49.3 3.03-.16 4.1-1.23l61.278-61.278c.186-.186.382-.351.585-.503l-11.266-21.587c-1.716-3.289-6.131-3.966-8.754-1.343l-61.278 61.278c-1.07 1.07-2.61 1.53-4.1 1.23l-6.87-1.39c-18.74-3.8-38.13 2.05-51.65 15.56l-62.86 62.87-22.58 19.84 20.616 22.396z" fill="#d78878"/><g><g id="XMLID_539_"><g><path d="m311.101 220.206c0-6.1 2.47-11.62 6.47-15.62 4.074-4.074 9.724-6.561 15.959-6.467 12.155.182 21.761 10.438 21.761 22.595v191.313c0 19.12-9.58 36.97-25.52 47.53l-5.85 3.88c-1.26.84-2.02 2.25-2.02 3.77v27.996c0 5.111-4.143 9.254-9.254 9.254h-105.542c-5.111 0-9.254-4.143-9.254-9.254v-27.836l-12.16-8.74c-18.67-13.42-29.73-35-29.73-57.99v-93.67c0-6.24 2.53-11.88 6.61-15.97 4.09-4.09 9.73-6.62 15.97-6.62v-97.68c0-12.166 9.629-22.419 21.793-22.578 6.228-.081 11.862 2.403 15.927 6.468 4 4 6.47 9.52 6.47 15.62v-12.504c0-12.152 9.605-22.404 21.756-22.584 6.232-.092 11.881 2.395 15.954 6.468 4 4 6.47 9.52 6.47 15.62v31c0-12.2 9.89-22.09 22.1-22.09 6.1 0 11.62 2.47 15.62 6.47s6.47 9.52 6.47 15.62z" fill="#ffdfcf"/></g><g><g id="XMLID_541_"><g><path d="m178.547 420.596c22.754 0 41.386-18.086 42.064-40.83l.521-17.512v-55.288c0-23.483-19.103-42.587-42.585-42.59z" fill="#ffcebf"/><path d="m201.131 306.966v54.99l-3.28 105.41-12.16-8.74c-18.67-13.42-29.73-35-29.73-57.99v-93.67c0-6.24 2.53-11.88 6.61-15.97 4.09-4.09 9.73-6.62 15.97-6.62 12.47 0 22.59 10.12 22.59 22.59z" fill="#ffdfcf"/><g><path d="m220.432 504.457v-35.067c0-6.104-2.938-11.834-7.895-15.397l-4.265-3.066c-18.665-13.416-29.73-34.996-29.73-57.982v-93.678c0-6.24 2.53-11.88 6.61-15.97 4.09-4.09 9.73-6.62 15.97-6.62v-98.17c0-5.199 1.809-9.982 4.815-13.755-1.811-.444-3.717-.664-5.674-.633-12.14.195-21.722 10.451-21.722 22.593v97.665c-6.24 0-11.88 2.53-15.97 6.62-4.08 4.09-6.61 9.73-6.61 15.97v93.67c0 22.99 11.06 44.57 29.73 57.99l12.16 8.74v28.032c0 5.003 4.055 9.058 9.058 9.058z" fill="#ffcebf"/></g></g></g></g></g></g><g fill="#ffcebf"><path d="m248.918 151.499c-1.326-.248-2.698-.383-4.096-.383-11.811 0-21.456 9.269-22.059 20.929v107.414c14.441 0 26.148-11.707 26.148-26.148z"/><path d="m266.971 283.244c14.441 0 26.148-11.707 26.148-26.148l.008-74.598c-1.332-.25-2.711-.383-4.116-.383-11.689 0-21.245 9.066-22.04 20.543z"/><path d="m337.351 198.507c-1.346-.256-2.74-.391-4.16-.391-6.1 0-11.62 2.47-15.62 6.47-3.557 3.558-5.9 8.318-6.376 13.619v68.437c14.441 0 26.148-11.707 26.148-26.148z"/></g></g><g><path d="m509.578 117.458c-2.929-2.928-7.678-2.928-10.606 0l-38.903 38.903c-1.707 1.708-2.488 4.132-2.098 6.515l2.418 14.779c3.313 20.252-3.371 41.006-17.882 55.517l-66.235 66.235c-3.611 3.612-8.667 5.077-13.483 4.154v-33.334l31.037-31.037c2.929-2.93 2.929-7.678 0-10.607-2.929-2.927-7.678-2.929-10.606 0l-20.431 20.43v-28.807c0-16.318-13.275-29.594-29.593-29.594-5.876 0-11.353 1.729-15.963 4.694-3.787-11.982-15.006-20.694-28.223-20.694-5.305 0-10.283 1.41-14.593 3.864v-5.271c0-8.929-3.98-16.94-10.253-22.371l23.886-23.886c2.929-2.93 2.929-7.678 0-10.607-2.929-2.928-7.678-2.928-10.606 0l-20.921 20.92-53.096-53.095c-15.336-15.336-37.182-21.923-58.443-17.613l-5.308 1.076-65.436-65.433c-2.929-2.928-7.678-2.928-10.606 0-2.929 2.93-2.929 7.678 0 10.607l66.564 66.563c2.857 2.857 6.927 4.08 10.891 3.282l6.874-1.394c16.314-3.307 33.085 1.747 44.857 13.52l48.991 48.99c-11.007 1.118-20.243 8.295-24.327 18.131-4.785-3.327-10.59-5.284-16.847-5.284-16.318 0-29.593 13.275-29.593 29.594v83.911c-.727-.919-1.495-1.812-2.332-2.649l-38.886-38.885c-2.929-2.928-7.678-2.928-10.606 0-2.929 2.93-2.929 7.678 0 10.607l38.885 38.884c1.277 1.278 2.302 2.757 3.043 4.369-6.854 4.877-11.588 12.545-12.518 21.336-4.328.344-8.673-1.189-11.857-4.373l-47.804-47.804c-2.929-2.928-7.678-2.928-10.606 0-2.929 2.93-2.929 7.678 0 10.607l47.804 47.804c5.765 5.764 13.437 8.823 21.261 8.823.344 0 .688-.011 1.032-.023v81.82c0 25.338 12.283 49.293 32.857 64.081l9.038 6.496v33.246c0 4.143 3.358 7.5 7.5 7.5s7.5-3.357 7.5-7.5v-37.092c0-2.414-1.162-4.681-3.123-6.09l-12.16-8.74c-16.664-11.978-26.612-31.38-26.612-51.901v-93.671c0-8.317 6.767-15.084 15.084-15.084s15.084 6.767 15.084 15.084v54.993c0 4.143 3.358 7.5 7.5 7.5s7.5-3.357 7.5-7.5v-54.993c0-14-9.612-25.796-22.584-29.137v-91.621c0-8.047 6.546-14.594 14.593-14.594 8.046 0 14.593 6.547 14.593 14.594v98.174c0 4.143 3.358 7.5 7.5 7.5s7.5-3.357 7.5-7.5v-111.17c0-8.047 6.546-14.594 14.593-14.594s14.593 6.547 14.593 14.594v115.102c0 4.143 3.358 7.5 7.5 7.5s7.5-3.357 7.5-7.5v-84.102c0-8.047 6.546-14.594 14.593-14.594 8.046 0 14.593 6.547 14.593 14.594v84.102c0 4.143 3.358 7.5 7.5 7.5s7.5-3.357 7.5-7.5v-68.092c0-.003 0-.006 0-.01 0-8.047 6.546-14.594 14.593-14.594s14.593 6.547 14.593 14.594v125.032c0 4.143 3.358 7.5 7.5 7.5s7.5-3.357 7.5-7.5v-26.527c.944.09 1.89.14 2.834.14 7.785 0 15.457-3.037 21.255-8.836l66.235-66.235c17.917-17.917 26.17-43.541 22.078-68.546l-1.797-10.984 36.184-36.184c2.93-2.931 2.93-7.679.001-10.609z"/><path d="m355.288 369.701c-4.142 0-7.5 3.357-7.5 7.5v34.83c0 16.647-8.284 32.079-22.159 41.278l-5.846 3.875c-3.369 2.233-5.381 5.98-5.381 10.022v37.252c0 4.143 3.358 7.5 7.5 7.5s7.5-3.357 7.5-7.5v-35.654l4.516-2.993c18.078-11.985 28.87-32.091 28.87-53.78v-34.83c0-4.143-3.358-7.5-7.5-7.5z"/><path d="m305.347 106.544c1.919 0 3.839-.732 5.303-2.196l9.574-9.573c11.772-11.772 28.541-16.828 44.856-13.52l6.877 1.395c3.961.798 8.034-.428 10.888-3.283l66.564-66.563c2.929-2.93 2.929-7.678 0-10.607-2.929-2.928-7.678-2.928-10.606 0l-65.434 65.433-5.309-1.076c-21.256-4.307-43.105 2.276-58.443 17.613l-9.574 9.573c-2.929 2.929-2.929 7.678 0 10.606 1.465 1.466 3.384 2.198 5.304 2.198z"/><path d="m52.655 177.656 2.418-14.779c.39-2.383-.391-4.807-2.098-6.515l-39.988-39.987c-2.929-2.928-7.678-2.928-10.606 0-2.929 2.93-2.929 7.678 0 10.607l37.269 37.268-1.797 10.984c-3.737 22.835 2.696 46.062 17.649 63.725 1.483 1.753 3.599 2.654 5.728 2.654 1.712 0 3.433-.583 4.842-1.775 3.161-2.677 3.554-7.409.878-10.57-12.111-14.307-17.322-33.118-14.295-51.612z"/></g></g></svg>