<svg id="Capa_1" enable-background="new 0 0 512 512" height="512" viewBox="0 0 512 512" width="512" xmlns="http://www.w3.org/2000/svg"><g><g><g><path d="m256 512c-141.385 0-256-114.615-256-256s114.615-256 256-256l30 261.311z" fill="#ffe477"/><path d="m256 0c141.385 0 256 114.615 256 256s-114.615 256-256 256z" fill="#ffcd00"/></g><g><path d="m256 448.266c-106.185 0-192.266-86.08-192.266-192.266s86.081-192.266 192.266-192.266l20 192.285z" fill="#fdfae5"/><path d="m256 63.734c106.185 0 192.266 86.08 192.266 192.266s-86.081 192.266-192.266 192.266z" fill="#faf1b4"/></g><g><path d="m203.535 331.706c-20.658-20.658-20.658-54.272 0-74.931l-21.213-21.213c-32.355 32.355-32.355 85.001 0 117.356 15.997 15.997 37.261 24.321 58.738 24.321 4.99 0 9.99-.46 14.939-1.367l10-18.706-10-12.09c-18.273 5.394-38.506.588-52.464-13.37z" fill="#09607d"/><path d="m267.762 339.988c-3.764 2.206-7.716 3.894-11.762 5.088v30.796c9.301-1.704 18.419-5.014 26.932-10.004z" fill="#07485e"/></g></g><g><path d="m256 245.506 10-15-10-15v-26.989l10-31.017-10-25.22c-4.471-2.39-9.576-3.749-15-3.749-17.6 0-31.867 14.268-31.867 31.867 0 12.176 6.831 22.753 16.867 28.118v120.724h30l10-16.24-10-13.76z" fill="#09607d"/><g fill="#07485e"><path d="m256 215.506h60.596v30h-60.596z"/><path d="m272.867 160.398c0-12.176-6.831-22.753-16.867-28.118v56.237c10.036-5.366 16.867-15.943 16.867-28.119z"/><path d="m338.146 336.602v-57.362h-82.146v30h52.146v57.362h51.117v-30z"/></g></g></g></svg>